<?xml version="1.0" standalone="no"?>
<!DOCTYPE svg PUBLIC "-//W3C//DTD SVG 20010904//EN"
 "http://www.w3.org/TR/2001/REC-SVG-20010904/DTD/svg10.dtd">
<svg version="1.0" xmlns="http://www.w3.org/2000/svg"
 width="195.000000pt" height="195.000000pt" viewBox="0 0 195.000000 195.000000"
 preserveAspectRatio="xMidYMid meet">
<metadata>
Created by potrace 1.10, written by Peter Selinger 2001-2011
</metadata>
<g transform="translate(0.000000,195.000000) scale(0.100000,-0.100000)"
fill="#000000" stroke="none">
<path d="M0 1030 l0 -920 55 0 55 0 0 -55 0 -55 920 0 920 0 0 910 0 910 -65
0 -65 0 0 65 0 65 -910 0 -910 0 0 -920z m1762 836 c4 -8 5 -21 2 -30 -5 -14
-90 -16 -828 -18 l-821 -3 -3 -821 c-2 -738 -4 -823 -18 -828 -46 -17 -44 -42
-44 857 0 467 1 851 4 855 2 4 386 6 852 5 724 -2 849 -5 856 -17z m106 -104
c9 -7 12 -187 12 -857 0 -466 -1 -850 -3 -852 -2 -2 -386 -3 -853 -3 -901 0
-876 -2 -858 44 5 14 90 16 828 18 l821 3 3 819 c2 871 2 858 50 828z m-108
-797 l0 -795 -795 0 -795 0 0 795 0 795 795 0 795 0 0 -795z"/>
<path d="M1085 1385 c-43 -43 -45 -47 -45 -105 0 -58 2 -62 45 -105 43 -43 47
-45 105 -45 58 0 62 2 105 45 43 43 45 47 45 105 0 58 -2 62 -45 105 -43 43
-47 45 -105 45 -58 0 -62 -2 -105 -45z m164 -47 c18 -19 31 -44 31 -58 0 -14
-13 -39 -31 -57 -40 -43 -77 -44 -118 -2 -41 40 -41 78 0 118 41 42 78 41 118
-1z"/>
<path d="M1080 889 c-52 -55 -96 -104 -98 -109 -4 -12 -32 -14 -32 -2 -1 12
-107 122 -118 122 -10 0 -392 -376 -392 -385 0 -3 9 -14 21 -26 25 -25 12 -35
204 159 83 83 158 152 166 152 8 0 101 -88 207 -195 105 -107 194 -195 197
-195 7 0 45 38 45 46 0 8 -254 254 -262 254 -5 0 -8 7 -8 15 0 8 4 15 8 15 5
0 42 34 83 75 41 41 81 75 89 75 8 0 68 -55 135 -122 157 -160 149 -154 174
-129 12 12 21 23 21 26 0 11 -322 325 -333 324 -7 0 -55 -45 -107 -100z"/>
</g>
</svg>
