<?xml version="1.0" standalone="no"?>
<!DOCTYPE svg PUBLIC "-//W3C//DTD SVG 20010904//EN"
 "http://www.w3.org/TR/2001/REC-SVG-20010904/DTD/svg10.dtd">
<svg version="1.0" xmlns="http://www.w3.org/2000/svg"
 width="81.000000pt" height="81.000000pt" viewBox="0 0 81.000000 81.000000"
 preserveAspectRatio="xMidYMid meet">
<metadata>
Created by potrace 1.13, written by Peter Selinger 2001-2015
</metadata>
<g transform="translate(0.000000,81.000000) scale(0.100000,-0.100000)"
fill="#000000" stroke="none">
<path d="M315 796 c-253 -63 -384 -339 -270 -569 77 -154 259 -248 422 -218
175 32 302 159 334 332 38 206 -107 413 -319 458 -65 14 -102 13 -167 -3z m75
-31 c0 -8 7 -15 15 -15 8 0 15 7 15 16 0 23 69 10 146 -27 105 -50 191 -164
209 -276 6 -35 4 -43 -9 -43 -9 0 -16 -7 -16 -15 0 -8 7 -15 16 -15 13 0 15
-8 9 -42 -18 -113 -104 -227 -209 -277 -77 -37 -146 -50 -146 -27 0 9 -7 16
-15 16 -8 0 -15 -7 -15 -16 0 -13 -8 -15 -42 -9 -113 18 -227 104 -277 209
-37 77 -50 146 -27 146 9 0 16 7 16 15 0 8 -7 15 -16 15 -13 0 -15 8 -9 43 22
137 139 267 274 303 62 17 81 17 81 -1z"/>
<path d="M474 537 l-120 -81 -82 -123 c-117 -175 -114 -178 61 -61 l123 82 82
123 c45 68 82 127 82 133 0 21 -28 7 -146 -73z"/>
</g>
</svg>
