<?xml version="1.0" standalone="no"?>
<!DOCTYPE svg PUBLIC "-//W3C//DTD SVG 20010904//EN"
 "http://www.w3.org/TR/2001/REC-SVG-20010904/DTD/svg10.dtd">
<svg version="1.0" xmlns="http://www.w3.org/2000/svg"
 width="65.000000pt" height="65.000000pt" viewBox="0 0 65.000000 65.000000"
 preserveAspectRatio="xMidYMid meet">
<metadata>
Created by potrace 1.13, written by Peter Selinger 2001-2015
</metadata>
<g transform="translate(0.000000,65.000000) scale(0.100000,-0.100000)"
fill="#000000" stroke="none">
<path d="M0 345 c0 -298 0 -305 20 -305 13 0 20 -7 20 -20 0 -20 7 -20 305
-20 l305 0 0 305 c0 298 0 305 -20 305 -13 0 -20 7 -20 20 0 20 -7 20 -305 20
l-305 0 0 -305z m590 275 c0 -6 -98 -10 -275 -10 l-275 0 0 -275 c0 -177 -4
-275 -10 -275 -6 0 -10 102 -10 285 l0 285 285 0 c183 0 285 -4 285 -10z m0
-295 l0 -265 -265 0 -265 0 0 265 0 265 265 0 265 0 0 -265z m40 -20 l0 -285
-285 0 c-183 0 -285 4 -285 10 0 6 98 10 275 10 l275 0 0 275 c0 177 4 275 10
275 6 0 10 -102 10 -285z"/>
<path d="M130 275 l0 -175 160 0 160 0 0 59 c0 55 2 59 29 71 62 25 62 115 0
140 -24 10 -29 18 -29 46 l0 34 -160 0 -160 0 0 -175z m300 0 l0 -155 -140 0
-140 0 0 155 0 155 140 0 140 0 0 -155z"/>
</g>
</svg>
