<?xml version="1.0" standalone="no"?>
<!DOCTYPE svg PUBLIC "-//W3C//DTD SVG 20010904//EN"
 "http://www.w3.org/TR/2001/REC-SVG-20010904/DTD/svg10.dtd">
<svg version="1.0" xmlns="http://www.w3.org/2000/svg"
 width="195.000000pt" height="195.000000pt" viewBox="0 0 195.000000 195.000000"
 preserveAspectRatio="xMidYMid meet">
<metadata>
Created by potrace 1.10, written by Peter Selinger 2001-2011
</metadata>
<g transform="translate(0.000000,195.000000) scale(0.100000,-0.100000)"
fill="#000000" stroke="none">
<path d="M0 1030 l0 -920 55 0 55 0 0 -55 0 -55 920 0 920 0 0 910 0 910 -65
0 -65 0 0 65 0 65 -910 0 -910 0 0 -920z m1762 836 c4 -8 5 -21 2 -30 -5 -14
-90 -16 -828 -18 l-821 -3 -3 -821 c-2 -738 -4 -823 -18 -828 -46 -17 -44 -42
-44 857 0 467 1 851 4 855 2 4 386 6 852 5 724 -2 849 -5 856 -17z m106 -104
c9 -7 12 -187 12 -857 0 -466 -1 -850 -3 -852 -2 -2 -386 -3 -853 -3 -901 0
-876 -2 -858 44 5 14 90 16 828 18 l821 3 3 819 c2 871 2 858 50 828z m-108
-797 l0 -795 -795 0 -795 0 0 795 0 795 795 0 795 0 0 -795z"/>
<path d="M834 1638 c-4 -7 -7 -55 -7 -107 1 -76 4 -98 17 -106 11 -7 21 -7 32
0 13 8 16 30 17 106 1 102 -4 119 -33 119 -10 0 -22 -5 -26 -12z"/>
<path d="M584 1537 c-17 -71 14 -136 54 -111 21 13 29 98 11 120 -19 23 -58
18 -65 -9z"/>
<path d="M1071 1546 c-18 -22 -10 -107 12 -120 29 -19 52 4 55 58 3 51 -9 76
-38 76 -10 0 -23 -6 -29 -14z"/>
<path d="M384 1341 c-2 -2 -4 -240 -4 -528 l0 -523 480 0 480 0 0 180 c0 171
1 180 19 180 18 0 75 24 133 56 15 8 30 23 33 34 4 11 10 20 15 20 5 0 11 13
15 30 4 16 11 32 16 35 5 4 9 33 9 65 0 32 -4 61 -9 65 -5 3 -12 19 -16 35 -4
17 -10 30 -15 30 -5 0 -11 9 -15 20 -3 11 -18 26 -33 34 -58 32 -115 56 -133
56 -18 0 -19 8 -19 105 l0 105 -476 2 c-262 2 -478 1 -480 -1z m896 -526 l0
-465 -420 0 -420 0 0 465 0 465 420 0 420 0 0 -465z m161 223 c53 -41 79 -90
79 -148 0 -25 -8 -61 -19 -80 -24 -47 -95 -100 -132 -100 l-29 0 0 180 0 180
29 0 c18 0 46 -13 72 -32z"/>
</g>
</svg>
