<?xml version="1.0" standalone="no"?>
<!DOCTYPE svg PUBLIC "-//W3C//DTD SVG 20010904//EN"
 "http://www.w3.org/TR/2001/REC-SVG-20010904/DTD/svg10.dtd">
<svg version="1.0" xmlns="http://www.w3.org/2000/svg"
 width="66.000000pt" height="66.000000pt" viewBox="0 0 66.000000 66.000000"
 preserveAspectRatio="xMidYMid meet">
<metadata>
Created by potrace 1.13, written by Peter Selinger 2001-2015
</metadata>
<g transform="translate(0.000000,66.000000) scale(0.100000,-0.100000)"
fill="#000000" stroke="none">
<path d="M57 592 l-57 -57 110 -110 110 -110 -84 -85 c-71 -72 -86 -93 -100
-140 -8 -30 -12 -58 -8 -62 4 -4 33 0 64 9 54 15 66 26 302 262 175 176 246
253 246 269 0 26 -41 72 -65 72 -8 0 -63 -45 -122 -100 l-107 -100 -106 105
c-58 58 -110 105 -115 105 -6 0 -36 -26 -68 -58z m85 -1 c-2 -18 2 -21 17 -16
26 8 37 -12 17 -34 -21 -23 -8 -36 15 -15 22 20 42 9 33 -18 -5 -17 -3 -19 14
-14 24 8 39 -11 23 -27 -6 -6 -11 -18 -11 -26 0 -11 4 -10 20 4 23 21 35 14
35 -21 1 -15 -13 -37 -35 -59 l-36 -35 -99 100 -99 100 44 45 c47 48 67 53 62
16z m216 -288 l-232 -233 -28 27 -29 27 233 233 232 233 28 -27 29 -27 -233
-233z"/>
<path d="M430 315 c-16 -19 -3 -40 15 -25 18 15 31 -6 15 -25 -19 -23 -1 -39
21 -19 16 14 19 15 24 2 3 -8 5 -19 4 -24 -4 -21 2 -26 16 -14 12 10 16 9 21
-4 3 -9 1 -22 -5 -30 -17 -20 0 -28 20 -10 16 15 19 15 24 2 3 -8 5 -19 4 -24
-4 -21 2 -26 16 -14 34 28 12 -9 -30 -50 l-45 -44 -95 94 c-52 52 -98 91 -102
87 -4 -4 40 -55 97 -112 l105 -105 62 62 63 63 -102 102 c-57 57 -106 103
-109 103 -4 0 -12 -7 -19 -15z"/>
</g>
</svg>
