<?xml version="1.0" standalone="no"?>
<!DOCTYPE svg PUBLIC "-//W3C//DTD SVG 20010904//EN"
 "http://www.w3.org/TR/2001/REC-SVG-20010904/DTD/svg10.dtd">
<svg version="1.0" xmlns="http://www.w3.org/2000/svg"
 width="78.000000pt" height="77.000000pt" viewBox="0 0 78.000000 77.000000"
 preserveAspectRatio="xMidYMid meet">
<metadata>
Created by potrace 1.13, written by Peter Selinger 2001-2015
</metadata>
<g transform="translate(0.000000,77.000000) scale(0.100000,-0.100000)"
fill="#000000" stroke="none">
<path d="M324 725 c-6 -43 -10 -48 -48 -65 -41 -18 -41 -17 -73 6 -17 13 -36
24 -40 24 -5 0 -26 -17 -46 -38 l-37 -38 26 -38 c23 -34 25 -41 13 -69 -17
-44 -23 -49 -66 -56 l-38 -6 -3 -57 c-3 -56 -2 -58 25 -63 53 -12 68 -22 81
-59 12 -34 12 -38 -14 -72 l-27 -35 41 -41 41 -41 40 26 41 27 37 -19 c30 -15
39 -27 47 -62 l11 -44 55 0 55 0 9 45 c8 40 13 47 49 63 40 17 41 17 73 -8 18
-14 37 -25 41 -25 5 0 26 17 46 38 l37 38 -26 37 c-23 35 -24 40 -12 74 13 36
28 46 81 58 27 5 28 7 25 63 l-3 57 -38 6 c-43 7 -49 12 -67 57 -12 30 -11 36
14 70 l26 36 -37 38 c-20 21 -41 38 -47 38 -5 0 -24 -11 -42 -25 -32 -24 -32
-24 -72 -7 -36 15 -42 22 -49 62 l-8 45 -57 3 -57 3 -7 -46z m108 -31 c8 -36
13 -42 59 -62 l51 -21 36 24 37 25 24 -25 25 -25 -23 -31 -23 -31 18 -55 c11
-31 24 -57 29 -58 6 -2 27 -6 48 -10 36 -6 38 -8 35 -38 -3 -29 -8 -33 -47
-43 -41 -9 -45 -14 -63 -62 l-19 -52 21 -36 22 -35 -22 -24 -22 -24 -37 25
-37 24 -52 -22 c-47 -20 -52 -25 -60 -62 -7 -38 -10 -41 -44 -44 -35 -3 -36
-2 -42 41 -6 41 -10 45 -58 65 l-52 22 -37 -24 -37 -25 -21 23 c-26 28 -26 30
0 66 l22 28 -24 56 c-17 42 -28 56 -43 56 -50 0 -66 11 -66 46 0 31 3 33 43
41 38 8 44 14 66 58 l23 50 -22 39 -22 39 24 23 23 24 36 -25 35 -25 52 22
c48 21 52 26 58 66 6 42 7 43 42 40 34 -3 37 -6 44 -44z"/>
<path d="M315 584 c-82 -30 -135 -108 -135 -199 0 -162 163 -260 308 -186 132
68 152 254 38 348 -63 52 -136 65 -211 37z m182 -51 c55 -44 77 -88 77 -149
-3 -155 -186 -242 -301 -141 -40 35 -72 97 -73 140 0 62 54 145 115 173 18 9
53 13 87 11 46 -3 65 -9 95 -34z"/>
<path d="M341 477 c-14 -6 -33 -27 -44 -44 -48 -83 43 -180 134 -143 40 17 59
46 59 93 0 49 -13 73 -50 92 -35 18 -67 19 -99 2z m108 -43 c28 -35 26 -69 -4
-99 -34 -35 -86 -34 -114 1 -27 34 -27 64 0 98 16 20 29 26 59 26 30 0 43 -6
59 -26z"/>
</g>
</svg>
