<?xml version="1.0" standalone="no"?>
<!DOCTYPE svg PUBLIC "-//W3C//DTD SVG 20010904//EN"
 "http://www.w3.org/TR/2001/REC-SVG-20010904/DTD/svg10.dtd">
<svg version="1.0" xmlns="http://www.w3.org/2000/svg"
 width="195.000000pt" height="195.000000pt" viewBox="0 0 195.000000 195.000000"
 preserveAspectRatio="xMidYMid meet">
<metadata>
Created by potrace 1.10, written by Peter Selinger 2001-2011
</metadata>
<g transform="translate(0.000000,195.000000) scale(0.100000,-0.100000)"
fill="#000000" stroke="none">
<path d="M0 1030 l0 -920 55 0 55 0 0 -55 0 -55 920 0 920 0 0 910 0 910 -65
0 -65 0 0 65 0 65 -910 0 -910 0 0 -920z m1762 836 c4 -8 5 -21 2 -30 -5 -14
-90 -16 -828 -18 l-821 -3 -3 -821 c-2 -738 -4 -823 -18 -828 -46 -17 -44 -42
-44 857 0 467 1 851 4 855 2 4 386 6 852 5 724 -2 849 -5 856 -17z m106 -104
c9 -7 12 -187 12 -857 0 -466 -1 -850 -3 -852 -2 -2 -386 -3 -853 -3 -901 0
-876 -2 -858 44 5 14 90 16 828 18 l821 3 3 819 c2 871 2 858 50 828z m-108
-797 l0 -795 -795 0 -795 0 0 795 0 795 795 0 795 0 0 -795z"/>
<path d="M560 965 l0 -675 405 0 405 0 0 675 0 675 -405 0 -405 0 0 -675z
m750 0 l0 -615 -345 0 -345 0 0 615 0 615 345 0 345 0 0 -615z"/>
<path d="M889 1513 c-7 -8 -7 -18 -1 -30 14 -26 140 -25 154 1 7 12 6 22 -1
29 -15 15 -140 16 -152 0z"/>
<path d="M911 512 c-30 -43 -27 -75 10 -106 65 -55 136 -14 126 72 -2 24 -7
46 -11 49 -3 3 -27 8 -54 11 -45 4 -51 2 -71 -26z m89 -37 c10 -12 10 -18 0
-30 -25 -30 -61 -7 -46 30 3 8 12 15 19 15 8 0 20 -7 27 -15z"/>
</g>
</svg>
