<?xml version="1.0" standalone="no"?>
<!DOCTYPE svg PUBLIC "-//W3C//DTD SVG 20010904//EN"
 "http://www.w3.org/TR/2001/REC-SVG-20010904/DTD/svg10.dtd">
<svg version="1.0" xmlns="http://www.w3.org/2000/svg"
 width="73.000000pt" height="73.000000pt" viewBox="0 0 73.000000 73.000000"
 preserveAspectRatio="xMidYMid meet">
<metadata>
Created by potrace 1.13, written by Peter Selinger 2001-2015
</metadata>
<g transform="translate(0.000000,73.000000) scale(0.100000,-0.100000)"
fill="#000000" stroke="none">
<path d="M134 707 c-21 -18 -28 -35 -32 -78 -4 -45 -11 -61 -42 -95 -25 -27
-41 -58 -50 -93 -11 -48 -11 -53 6 -66 51 -37 215 -47 294 -17 39 15 45 22 48
50 4 41 -30 113 -69 146 -16 14 -29 27 -29 29 0 2 29 7 65 11 51 5 71 3 88 -9
12 -8 29 -15 38 -15 9 0 44 -32 78 -72 85 -101 84 -116 -17 -268 l-77 -115
-65 -3 c-79 -4 -100 -19 -100 -74 l0 -38 205 0 205 0 0 38 c0 54 -23 72 -89
72 -29 0 -51 4 -49 8 16 39 137 212 150 216 23 5 40 50 32 82 -4 14 -18 31
-33 38 -35 19 -171 180 -171 204 0 44 -72 68 -115 38 -30 -20 -145 -28 -152
-10 -6 17 -54 44 -77 44 -8 0 -27 -10 -42 -23z m146 -182 c25 -23 44 -57 54
-97 10 -42 -36 -61 -144 -61 -99 -1 -160 16 -160 43 0 28 18 71 45 105 22 30
25 31 103 30 65 0 85 -4 102 -20z m364 -451 c9 -8 16 -22 16 -30 0 -12 -31
-14 -185 -14 -154 0 -185 2 -185 14 0 8 7 22 16 30 23 23 315 23 338 0z"/>
</g>
</svg>
