<?xml version="1.0" standalone="no"?>
<!DOCTYPE svg PUBLIC "-//W3C//DTD SVG 20010904//EN"
 "http://www.w3.org/TR/2001/REC-SVG-20010904/DTD/svg10.dtd">
<svg version="1.0" xmlns="http://www.w3.org/2000/svg"
 width="65.000000pt" height="65.000000pt" viewBox="0 0 65.000000 65.000000"
 preserveAspectRatio="xMidYMid meet">
<metadata>
Created by potrace 1.10, written by Peter Selinger 2001-2011
</metadata>
<g transform="translate(0.000000,65.000000) scale(0.100000,-0.100000)"
fill="#000000" stroke="none">
<path d="M7 643 c-4 -3 -7 -141 -7 -305 0 -291 0 -298 20 -298 13 0 20 -7 20
-20 0 -20 5 -20 303 -18 l302 3 3 303 c2 297 2 302 -18 302 -13 0 -20 7 -20
20 0 20 -7 20 -298 20 -164 0 -302 -3 -305 -7z m583 -23 c0 -6 -98 -10 -275
-10 l-275 0 0 -275 c0 -177 -4 -275 -10 -275 -6 0 -10 102 -10 285 l0 285 285
0 c183 0 285 -4 285 -10z m0 -295 l0 -265 -265 0 -265 0 0 265 0 265 265 0
265 0 0 -265z m40 -20 l0 -285 -285 0 c-183 0 -285 4 -285 10 0 6 98 10 275
10 l275 0 0 275 c0 177 4 275 10 275 6 0 10 -102 10 -285z"/>
<path d="M256 485 c-55 -21 -99 -57 -134 -111 -30 -45 -31 -48 -16 -76 30 -57
98 -115 158 -134 49 -15 64 -16 104 -6 63 17 118 57 158 115 32 47 33 50 19
78 -59 113 -187 173 -289 134z m171 -35 c31 -18 65 -48 83 -75 29 -42 30 -46
16 -72 -21 -41 -86 -100 -128 -118 -76 -31 -154 -12 -221 53 -76 73 -77 93 -8
166 75 81 169 97 258 46z"/>
<path d="M305 370 c8 -13 -14 -42 -26 -34 -5 3 -9 -4 -9 -15 0 -44 62 -68 94
-35 20 20 20 58 0 78 -17 18 -69 22 -59 6z m55 -30 c15 -28 -22 -65 -50 -50
-24 13 -26 26 -5 34 8 3 15 12 15 21 0 22 27 19 40 -5z"/>
</g>
</svg>
