<?xml version="1.0" standalone="no"?>
<!DOCTYPE svg PUBLIC "-//W3C//DTD SVG 20010904//EN"
 "http://www.w3.org/TR/2001/REC-SVG-20010904/DTD/svg10.dtd">
<svg version="1.0" xmlns="http://www.w3.org/2000/svg"
 width="65.000000pt" height="65.000000pt" viewBox="0 0 65.000000 65.000000"
 preserveAspectRatio="xMidYMid meet">
<metadata>
Created by potrace 1.13, written by Peter Selinger 2001-2015
</metadata>
<g transform="translate(0.000000,65.000000) scale(0.100000,-0.100000)"
fill="#000000" stroke="none">
<path d="M0 345 c0 -298 0 -305 20 -305 13 0 20 -7 20 -20 0 -20 7 -20 305
-20 l305 0 0 305 c0 298 0 305 -20 305 -13 0 -20 7 -20 20 0 20 -7 20 -305 20
l-305 0 0 -305z m590 275 c0 -6 -98 -10 -275 -10 l-275 0 0 -275 c0 -177 -4
-275 -10 -275 -6 0 -10 102 -10 285 l0 285 285 0 c183 0 285 -4 285 -10z m0
-295 l0 -265 -265 0 -265 0 0 265 0 265 265 0 265 0 0 -265z m40 -20 l0 -285
-285 0 c-183 0 -285 4 -285 10 0 6 98 10 275 10 l275 0 0 275 c0 177 4 275 10
275 6 0 10 -102 10 -285z"/>
<path d="M252 483 c-44 -15 -115 -79 -144 -130 -17 -29 -17 -30 16 -79 40 -59
94 -98 158 -115 40 -11 55 -10 102 4 58 19 126 76 158 133 17 30 17 32 -11 76
-33 52 -85 95 -138 114 -48 17 -87 16 -141 -3z m186 -36 c22 -14 55 -47 72
-71 29 -43 30 -47 16 -73 -19 -36 -82 -96 -123 -117 -73 -36 -165 -13 -234 61
-52 55 -60 72 -44 103 17 32 81 93 120 114 47 25 142 17 193 -17z"/>
</g>
</svg>
