<?xml version="1.0" standalone="no"?>
<!DOCTYPE svg PUBLIC "-//W3C//DTD SVG 20010904//EN"
 "http://www.w3.org/TR/2001/REC-SVG-20010904/DTD/svg10.dtd">
<svg version="1.0" xmlns="http://www.w3.org/2000/svg"
 width="73.000000pt" height="74.000000pt" viewBox="0 0 73.000000 74.000000"
 preserveAspectRatio="xMidYMid meet">
<metadata>
Created by potrace 1.13, written by Peter Selinger 2001-2015
</metadata>
<g transform="translate(0.000000,74.000000) scale(0.100000,-0.100000)"
fill="#000000" stroke="none">
<path d="M437 730 c-109 -33 -165 -159 -121 -271 l17 -41 -96 -96 c-92 -92
-97 -95 -115 -79 -28 25 -44 21 -85 -21 -42 -43 -44 -52 -18 -77 20 -17 20
-17 -1 -45 -36 -50 0 -110 57 -96 13 3 94 80 180 171 l157 164 28 -14 c43 -22
104 -29 146 -15 51 16 110 73 130 127 58 150 -123 340 -279 293z m131 -39
c142 -73 176 -244 65 -328 -93 -71 -238 -18 -293 109 -27 63 -22 116 17 166
54 71 136 92 211 53z m-194 -317 l19 -26 -159 -159 c-114 -114 -165 -159 -179
-157 -47 7 -26 39 132 203 87 90 160 164 163 164 3 0 13 -11 24 -25z"/>
<path d="M422 622 c-60 -56 -52 -135 20 -196 34 -30 50 -36 86 -36 37 0 50 6
78 34 28 28 34 42 34 76 0 118 -140 195 -218 122z m129 -15 c45 -30 74 -85 65
-120 -15 -62 -73 -89 -130 -62 -87 42 -101 163 -22 195 34 14 51 11 87 -13z"/>
</g>
</svg>
